<svg width="25" height="24" viewBox="0 0 25 24" fill="none" xmlns="http://www.w3.org/2000/svg">
<path d="M14.189 7.8125C13.2036 7.8125 8.97314 7.90918 6.25 12.0093V7.8125C6.25 5.22754 4.14746 3.125 1.5625 3.125C0.699707 3.125 0 3.82471 0 4.6875C0 5.55029 0.699707 6.25 1.5625 6.25C2.42383 6.25 3.125 6.95117 3.125 7.8125V20.3125C3.125 22.0361 4.52637 23.4375 6.25 23.4375H14.8438C15.2754 23.4375 15.625 23.0879 15.625 22.6562V21.875C15.625 21.0122 14.9253 20.3125 14.0625 20.3125H12.5L18.75 15.625V22.6562C18.75 23.0879 19.0996 23.4375 19.5312 23.4375H21.0938C21.5254 23.4375 21.875 23.0879 21.875 22.6562V12.5908C21.3726 12.7212 20.855 12.8125 20.3125 12.8125C17.2944 12.8125 14.7695 10.6616 14.189 7.8125ZM21.875 3.125H18.75L15.625 0V6.5625C15.625 9.15137 17.7236 11.25 20.3125 11.25C22.9014 11.25 25 9.15137 25 6.5625V0L21.875 3.125ZM18.3594 7.03125C17.9277 7.03125 17.5781 6.68164 17.5781 6.25C17.5781 5.81836 17.9277 5.46875 18.3594 5.46875C18.791 5.46875 19.1406 5.81836 19.1406 6.25C19.1406 6.68164 18.791 7.03125 18.3594 7.03125ZM22.2656 7.03125C21.834 7.03125 21.4844 6.68164 21.4844 6.25C21.4844 5.81836 21.834 5.46875 22.2656 5.46875C22.6973 5.46875 23.0469 5.81836 23.0469 6.25C23.0469 6.68164 22.6973 7.03125 22.2656 7.03125Z" fill="white"/>
</svg>
