<?xml version="1.0" encoding="utf-8"?>
<svg version="1.1" id="Layer_1" x="0px" y="0px" width="214px" height="260px" viewBox="0 0 214 260" enable-background="new 0 0 214 260" xml:space="preserve">
	<path fill="currentColor" d="M143.309,163.108l-40.012-40.012l19.799-19.799l40.012,40.012l0.077,19.876L143.309,163.108z M198.046,186.736
	l-16.836-16.836l-0.128-34.077L90.571,45.311l11.311-11.311l-16.97-16.97L73.598,28.344L56.628,11.373
	c-12.497-12.497-32.758-12.497-45.255,0c-12.497,12.497-12.497,32.758,0,45.255l16.971,16.971L17.03,84.912L34,101.882
	l11.311-11.311l90.511,90.511l34.071,0.128l16.839,16.839L198.046,186.736z M53.797,82.086l28.289-28.289l87.007,87.016l0.12,28.4
	l-28.4-0.12L53.797,82.086z M212,240.26c0,9.797-6.766,17.74-15.112,17.74s-15.112-7.942-15.112-17.74
	c0-9.797,15.112-30.941,15.112-30.941S212,230.462,212,240.26z" />
</svg>
