<svg width="145" height="55" viewBox="0 0 145 55" fill="none" xmlns="http://www.w3.org/2000/svg">
	<path d="M17.22 41.36C17.22 42.64 17.012 43.812 16.596 44.876C16.18 45.932 15.592 46.84 14.832 47.6C14.08 48.36 13.172 48.952 12.108 49.376C11.052 49.792 9.876 50 8.58 50H2.052V32.72H8.58C9.876 32.72 11.052 32.932 12.108 33.356C13.172 33.772 14.08 34.36 14.832 35.12C15.592 35.88 16.18 36.792 16.596 37.856C17.012 38.912 17.22 40.08 17.22 41.36ZM14.352 41.36C14.352 40.368 14.216 39.476 13.944 38.684C13.68 37.892 13.296 37.224 12.792 36.68C12.296 36.136 11.692 35.72 10.98 35.432C10.268 35.136 9.468 34.988 8.58 34.988H4.872V47.732H8.58C9.468 47.732 10.268 47.588 10.98 47.3C11.692 47.012 12.296 46.596 12.792 46.052C13.296 45.5 13.68 44.832 13.944 44.048C14.216 43.256 14.352 42.36 14.352 41.36ZM27.6938 42.5C27.6938 42.068 27.6298 41.668 27.5018 41.3C27.3818 40.924 27.2018 40.6 26.9618 40.328C26.7218 40.048 26.4218 39.832 26.0618 39.68C25.7098 39.52 25.3018 39.44 24.8378 39.44C23.9018 39.44 23.1658 39.708 22.6298 40.244C22.0938 40.78 21.7538 41.532 21.6098 42.5H27.6938ZM21.5378 44.084C21.5698 44.78 21.6778 45.384 21.8618 45.896C22.0458 46.4 22.2898 46.82 22.5938 47.156C22.9058 47.492 23.2738 47.744 23.6978 47.912C24.1298 48.072 24.6098 48.152 25.1378 48.152C25.6418 48.152 26.0778 48.096 26.4458 47.984C26.8138 47.864 27.1338 47.736 27.4058 47.6C27.6778 47.456 27.9098 47.328 28.1018 47.216C28.2938 47.096 28.4698 47.036 28.6298 47.036C28.8378 47.036 28.9978 47.116 29.1098 47.276L29.8418 48.224C29.5378 48.584 29.1938 48.888 28.8098 49.136C28.4258 49.384 28.0178 49.588 27.5858 49.748C27.1538 49.9 26.7098 50.008 26.2538 50.072C25.7978 50.144 25.3538 50.18 24.9218 50.18C24.0738 50.18 23.2858 50.04 22.5578 49.76C21.8378 49.472 21.2098 49.052 20.6738 48.5C20.1458 47.948 19.7298 47.264 19.4258 46.448C19.1298 45.632 18.9818 44.692 18.9818 43.628C18.9818 42.78 19.1138 41.988 19.3778 41.252C19.6498 40.516 20.0338 39.876 20.5298 39.332C21.0338 38.788 21.6418 38.36 22.3538 38.048C23.0738 37.728 23.8858 37.568 24.7898 37.568C25.5418 37.568 26.2378 37.692 26.8778 37.94C27.5178 38.18 28.0698 38.536 28.5338 39.008C28.9978 39.48 29.3578 40.06 29.6138 40.748C29.8778 41.428 30.0098 42.204 30.0098 43.076C30.0098 43.476 29.9658 43.744 29.8778 43.88C29.7898 44.016 29.6298 44.084 29.3978 44.084H21.5378ZM42.9105 37.76L37.9905 50H35.6625L30.7425 37.76H32.8665C33.0665 37.76 33.2305 37.812 33.3585 37.916C33.4945 38.012 33.5825 38.128 33.6225 38.264L36.3345 45.392C36.4465 45.728 36.5465 46.06 36.6345 46.388C36.7225 46.716 36.7985 47.048 36.8625 47.384C36.9265 47.048 37.0025 46.72 37.0905 46.4C37.1865 46.072 37.2905 45.736 37.4025 45.392L40.1625 38.264C40.2105 38.12 40.2985 38 40.4265 37.904C40.5545 37.808 40.7105 37.76 40.8945 37.76H42.9105ZM58.8913 43.52L56.5153 37.208C56.3233 36.72 56.1273 36.1 55.9273 35.348C55.8393 35.724 55.7433 36.072 55.6393 36.392C55.5353 36.704 55.4393 36.98 55.3513 37.22L52.9753 43.52H58.8913ZM64.2073 50H62.0353C61.7873 50 61.5873 49.94 61.4353 49.82C61.2833 49.692 61.1673 49.536 61.0873 49.352L59.6473 45.536H52.2073L50.7673 49.352C50.7033 49.512 50.5913 49.66 50.4313 49.796C50.2713 49.932 50.0713 50 49.8313 50H47.6593L54.5113 32.72H57.3553L64.2073 50ZM73.0519 39.98C72.9879 40.092 72.9159 40.172 72.8359 40.22C72.7559 40.268 72.6559 40.292 72.5359 40.292C72.3999 40.292 72.2519 40.252 72.0919 40.172C71.9319 40.084 71.7439 39.988 71.5279 39.884C71.3119 39.78 71.0559 39.688 70.7599 39.608C70.4719 39.52 70.1319 39.476 69.7399 39.476C69.4199 39.476 69.1279 39.516 68.8639 39.596C68.6079 39.668 68.3879 39.776 68.2039 39.92C68.0279 40.056 67.8919 40.22 67.7959 40.412C67.6999 40.596 67.6519 40.796 67.6519 41.012C67.6519 41.3 67.7399 41.54 67.9159 41.732C68.0919 41.924 68.3239 42.092 68.6119 42.236C68.8999 42.372 69.2279 42.496 69.5959 42.608C69.9639 42.72 70.3399 42.84 70.7239 42.968C71.1079 43.096 71.4839 43.244 71.8519 43.412C72.2199 43.58 72.5479 43.788 72.8359 44.036C73.1239 44.276 73.3559 44.572 73.5319 44.924C73.7079 45.268 73.7959 45.688 73.7959 46.184C73.7959 46.76 73.6919 47.292 73.4839 47.78C73.2759 48.268 72.9719 48.692 72.5719 49.052C72.1719 49.412 71.6719 49.692 71.0719 49.892C70.4799 50.092 69.7999 50.192 69.0319 50.192C68.6079 50.192 68.1959 50.152 67.7959 50.072C67.4039 50 67.0279 49.9 66.6679 49.772C66.3159 49.636 65.9839 49.476 65.6719 49.292C65.3679 49.108 65.0959 48.908 64.8559 48.692L65.4559 47.708C65.5279 47.588 65.6159 47.496 65.7199 47.432C65.8319 47.36 65.9679 47.324 66.1279 47.324C66.2959 47.324 66.4599 47.38 66.6199 47.492C66.7879 47.596 66.9799 47.712 67.1959 47.84C67.4199 47.968 67.6879 48.088 67.9999 48.2C68.3119 48.304 68.6999 48.356 69.1639 48.356C69.5479 48.356 69.8799 48.312 70.1599 48.224C70.4399 48.128 70.6719 48 70.8559 47.84C71.0399 47.68 71.1759 47.5 71.2639 47.3C71.3519 47.092 71.3959 46.872 71.3959 46.64C71.3959 46.328 71.3079 46.072 71.1319 45.872C70.9559 45.672 70.7199 45.5 70.4239 45.356C70.1359 45.212 69.8039 45.084 69.4279 44.972C69.0599 44.86 68.6839 44.74 68.2999 44.612C67.9159 44.484 67.5359 44.336 67.1599 44.168C66.7919 44 66.4599 43.788 66.1639 43.532C65.8759 43.268 65.6439 42.952 65.4679 42.584C65.2919 42.208 65.2039 41.752 65.2039 41.216C65.2039 40.728 65.2999 40.264 65.4919 39.824C65.6919 39.384 65.9799 38.996 66.3559 38.66C66.7399 38.324 67.2079 38.06 67.7599 37.868C68.3199 37.668 68.9639 37.568 69.6919 37.568C70.5159 37.568 71.2639 37.7 71.9359 37.964C72.6079 38.228 73.1719 38.588 73.6279 39.044L73.0519 39.98ZM83.5284 39.98C83.4644 40.092 83.3924 40.172 83.3124 40.22C83.2324 40.268 83.1324 40.292 83.0124 40.292C82.8764 40.292 82.7284 40.252 82.5684 40.172C82.4084 40.084 82.2204 39.988 82.0044 39.884C81.7884 39.78 81.5324 39.688 81.2364 39.608C80.9484 39.52 80.6084 39.476 80.2164 39.476C79.8964 39.476 79.6044 39.516 79.3404 39.596C79.0844 39.668 78.8644 39.776 78.6804 39.92C78.5044 40.056 78.3684 40.22 78.2724 40.412C78.1764 40.596 78.1284 40.796 78.1284 41.012C78.1284 41.3 78.2164 41.54 78.3924 41.732C78.5684 41.924 78.8004 42.092 79.0884 42.236C79.3764 42.372 79.7044 42.496 80.0724 42.608C80.4404 42.72 80.8164 42.84 81.2004 42.968C81.5844 43.096 81.9604 43.244 82.3284 43.412C82.6964 43.58 83.0244 43.788 83.3124 44.036C83.6004 44.276 83.8324 44.572 84.0084 44.924C84.1844 45.268 84.2724 45.688 84.2724 46.184C84.2724 46.76 84.1684 47.292 83.9604 47.78C83.7524 48.268 83.4484 48.692 83.0484 49.052C82.6484 49.412 82.1484 49.692 81.5484 49.892C80.9564 50.092 80.2764 50.192 79.5084 50.192C79.0844 50.192 78.6724 50.152 78.2724 50.072C77.8804 50 77.5044 49.9 77.1444 49.772C76.7924 49.636 76.4604 49.476 76.1484 49.292C75.8444 49.108 75.5724 48.908 75.3324 48.692L75.9324 47.708C76.0044 47.588 76.0924 47.496 76.1964 47.432C76.3084 47.36 76.4444 47.324 76.6044 47.324C76.7724 47.324 76.9364 47.38 77.0964 47.492C77.2644 47.596 77.4564 47.712 77.6724 47.84C77.8964 47.968 78.1644 48.088 78.4764 48.2C78.7884 48.304 79.1764 48.356 79.6404 48.356C80.0244 48.356 80.3564 48.312 80.6364 48.224C80.9164 48.128 81.1484 48 81.3324 47.84C81.5164 47.68 81.6524 47.5 81.7404 47.3C81.8284 47.092 81.8724 46.872 81.8724 46.64C81.8724 46.328 81.7844 46.072 81.6084 45.872C81.4324 45.672 81.1964 45.5 80.9004 45.356C80.6124 45.212 80.2804 45.084 79.9044 44.972C79.5364 44.86 79.1604 44.74 78.7764 44.612C78.3924 44.484 78.0124 44.336 77.6364 44.168C77.2684 44 76.9364 43.788 76.6404 43.532C76.3524 43.268 76.1204 42.952 75.9444 42.584C75.7684 42.208 75.6804 41.752 75.6804 41.216C75.6804 40.728 75.7764 40.264 75.9684 39.824C76.1684 39.384 76.4564 38.996 76.8324 38.66C77.2164 38.324 77.6844 38.06 78.2364 37.868C78.7964 37.668 79.4404 37.568 80.1684 37.568C80.9924 37.568 81.7404 37.7 82.4124 37.964C83.0844 38.228 83.6484 38.588 84.1044 39.044L83.5284 39.98ZM89.385 37.76V50H86.805V37.76H89.385ZM89.817 34.064C89.817 34.296 89.769 34.516 89.673 34.724C89.585 34.932 89.461 35.116 89.301 35.276C89.141 35.428 88.953 35.552 88.737 35.648C88.529 35.736 88.305 35.78 88.065 35.78C87.833 35.78 87.613 35.736 87.405 35.648C87.205 35.552 87.029 35.428 86.877 35.276C86.725 35.116 86.601 34.932 86.505 34.724C86.417 34.516 86.373 34.296 86.373 34.064C86.373 33.824 86.417 33.6 86.505 33.392C86.601 33.184 86.725 33.004 86.877 32.852C87.029 32.692 87.205 32.568 87.405 32.48C87.613 32.384 87.833 32.336 88.065 32.336C88.305 32.336 88.529 32.384 88.737 32.48C88.953 32.568 89.141 32.692 89.301 32.852C89.461 33.004 89.585 33.184 89.673 33.392C89.769 33.6 89.817 33.824 89.817 34.064ZM99.9347 39.98C99.8707 40.092 99.7987 40.172 99.7187 40.22C99.6387 40.268 99.5387 40.292 99.4187 40.292C99.2827 40.292 99.1347 40.252 98.9747 40.172C98.8147 40.084 98.6267 39.988 98.4107 39.884C98.1947 39.78 97.9387 39.688 97.6427 39.608C97.3547 39.52 97.0147 39.476 96.6227 39.476C96.3027 39.476 96.0107 39.516 95.7467 39.596C95.4907 39.668 95.2707 39.776 95.0867 39.92C94.9107 40.056 94.7747 40.22 94.6787 40.412C94.5827 40.596 94.5347 40.796 94.5347 41.012C94.5347 41.3 94.6227 41.54 94.7987 41.732C94.9747 41.924 95.2067 42.092 95.4947 42.236C95.7827 42.372 96.1107 42.496 96.4787 42.608C96.8467 42.72 97.2227 42.84 97.6067 42.968C97.9907 43.096 98.3667 43.244 98.7347 43.412C99.1027 43.58 99.4307 43.788 99.7187 44.036C100.007 44.276 100.239 44.572 100.415 44.924C100.591 45.268 100.679 45.688 100.679 46.184C100.679 46.76 100.575 47.292 100.367 47.78C100.159 48.268 99.8547 48.692 99.4547 49.052C99.0547 49.412 98.5547 49.692 97.9547 49.892C97.3627 50.092 96.6827 50.192 95.9147 50.192C95.4907 50.192 95.0787 50.152 94.6787 50.072C94.2867 50 93.9107 49.9 93.5507 49.772C93.1987 49.636 92.8667 49.476 92.5547 49.292C92.2507 49.108 91.9787 48.908 91.7387 48.692L92.3387 47.708C92.4107 47.588 92.4987 47.496 92.6027 47.432C92.7147 47.36 92.8507 47.324 93.0107 47.324C93.1787 47.324 93.3427 47.38 93.5027 47.492C93.6707 47.596 93.8627 47.712 94.0787 47.84C94.3027 47.968 94.5707 48.088 94.8827 48.2C95.1947 48.304 95.5827 48.356 96.0467 48.356C96.4307 48.356 96.7627 48.312 97.0427 48.224C97.3227 48.128 97.5547 48 97.7387 47.84C97.9227 47.68 98.0587 47.5 98.1467 47.3C98.2347 47.092 98.2787 46.872 98.2787 46.64C98.2787 46.328 98.1907 46.072 98.0147 45.872C97.8387 45.672 97.6027 45.5 97.3067 45.356C97.0187 45.212 96.6867 45.084 96.3107 44.972C95.9427 44.86 95.5667 44.74 95.1827 44.612C94.7987 44.484 94.4187 44.336 94.0427 44.168C93.6747 44 93.3427 43.788 93.0467 43.532C92.7587 43.268 92.5267 42.952 92.3507 42.584C92.1747 42.208 92.0867 41.752 92.0867 41.216C92.0867 40.728 92.1827 40.264 92.3747 39.824C92.5747 39.384 92.8627 38.996 93.2387 38.66C93.6227 38.324 94.0907 38.06 94.6427 37.868C95.2027 37.668 95.8467 37.568 96.5747 37.568C97.3987 37.568 98.1467 37.7 98.8187 37.964C99.4907 38.228 100.055 38.588 100.511 39.044L99.9347 39.98ZM107.027 50.192C106.011 50.192 105.227 49.908 104.675 49.34C104.131 48.764 103.859 47.956 103.859 46.916V39.788H102.515C102.371 39.788 102.247 39.744 102.143 39.656C102.039 39.56 101.987 39.42 101.987 39.236V38.192L103.967 37.904L104.531 34.364C104.571 34.228 104.639 34.12 104.735 34.04C104.831 33.952 104.959 33.908 105.119 33.908H106.439V37.928H109.835V39.788H106.439V46.736C106.439 47.176 106.547 47.512 106.763 47.744C106.979 47.976 107.267 48.092 107.627 48.092C107.827 48.092 107.999 48.068 108.143 48.02C108.287 47.964 108.411 47.908 108.515 47.852C108.619 47.788 108.707 47.732 108.779 47.684C108.859 47.628 108.935 47.6 109.007 47.6C109.151 47.6 109.267 47.68 109.355 47.84L110.123 49.1C109.723 49.452 109.251 49.724 108.707 49.916C108.163 50.1 107.603 50.192 107.027 50.192ZM118.409 44.648C117.489 44.68 116.713 44.756 116.081 44.876C115.449 44.988 114.937 45.136 114.545 45.32C114.153 45.496 113.869 45.708 113.693 45.956C113.525 46.204 113.441 46.476 113.441 46.772C113.441 47.06 113.485 47.308 113.573 47.516C113.669 47.716 113.797 47.884 113.957 48.02C114.125 48.148 114.317 48.244 114.533 48.308C114.757 48.364 115.001 48.392 115.265 48.392C115.937 48.392 116.513 48.268 116.993 48.02C117.481 47.764 117.953 47.396 118.409 46.916V44.648ZM111.569 39.464C112.953 38.176 114.601 37.532 116.513 37.532C117.217 37.532 117.841 37.648 118.385 37.88C118.937 38.104 119.397 38.424 119.765 38.84C120.141 39.256 120.425 39.752 120.617 40.328C120.817 40.896 120.917 41.528 120.917 42.224V50H119.765C119.517 50 119.329 49.964 119.201 49.892C119.073 49.812 118.965 49.656 118.877 49.424L118.625 48.428C118.313 48.708 118.005 48.96 117.701 49.184C117.397 49.4 117.081 49.584 116.753 49.736C116.433 49.888 116.085 50 115.709 50.072C115.341 50.152 114.933 50.192 114.485 50.192C113.989 50.192 113.525 50.124 113.093 49.988C112.669 49.852 112.301 49.648 111.989 49.376C111.677 49.096 111.429 48.752 111.245 48.344C111.069 47.936 110.981 47.456 110.981 46.904C110.981 46.432 111.105 45.972 111.353 45.524C111.609 45.076 112.025 44.676 112.601 44.324C113.185 43.964 113.949 43.668 114.893 43.436C115.845 43.204 117.017 43.072 118.409 43.04V42.224C118.409 41.344 118.221 40.688 117.845 40.256C117.469 39.824 116.917 39.608 116.189 39.608C115.693 39.608 115.277 39.672 114.941 39.8C114.605 39.92 114.313 40.052 114.065 40.196C113.817 40.34 113.597 40.476 113.405 40.604C113.213 40.724 113.009 40.784 112.793 40.784C112.617 40.784 112.465 40.74 112.337 40.652C112.217 40.556 112.117 40.44 112.037 40.304L111.569 39.464ZM126.351 39.38C126.615 39.108 126.887 38.864 127.167 38.648C127.455 38.424 127.759 38.232 128.079 38.072C128.399 37.912 128.739 37.788 129.099 37.7C129.459 37.612 129.851 37.568 130.275 37.568C130.947 37.568 131.535 37.68 132.039 37.904C132.551 38.128 132.979 38.444 133.323 38.852C133.675 39.26 133.939 39.752 134.115 40.328C134.291 40.896 134.379 41.524 134.379 42.212V50H131.811V42.212C131.811 41.388 131.619 40.748 131.235 40.292C130.859 39.836 130.283 39.608 129.507 39.608C128.931 39.608 128.395 39.74 127.899 40.004C127.411 40.268 126.951 40.628 126.519 41.084V50H123.939V37.76H125.499C125.851 37.76 126.075 37.924 126.171 38.252L126.351 39.38ZM141.152 50.192C140.136 50.192 139.352 49.908 138.8 49.34C138.256 48.764 137.984 47.956 137.984 46.916V39.788H136.64C136.496 39.788 136.372 39.744 136.268 39.656C136.164 39.56 136.112 39.42 136.112 39.236V38.192L138.092 37.904L138.656 34.364C138.696 34.228 138.764 34.12 138.86 34.04C138.956 33.952 139.084 33.908 139.244 33.908H140.564V37.928H143.96V39.788H140.564V46.736C140.564 47.176 140.672 47.512 140.888 47.744C141.104 47.976 141.392 48.092 141.752 48.092C141.952 48.092 142.124 48.068 142.268 48.02C142.412 47.964 142.536 47.908 142.64 47.852C142.744 47.788 142.832 47.732 142.904 47.684C142.984 47.628 143.06 47.6 143.132 47.6C143.276 47.6 143.392 47.68 143.48 47.84L144.248 49.1C143.848 49.452 143.376 49.724 142.832 49.916C142.288 50.1 141.728 50.192 141.152 50.192Z" fill="white" />
	<g clip-path="url(#clip0_344_86)">
		<path d="M73.081 20.8731C71.4534 20.8731 69.8242 20.8482 68.1983 20.8814C67.1625 20.9029 67.1493 20.4642 67.6066 19.7423C68.1688 18.8533 69.0457 18.3236 69.9439 17.9179C71.7731 17.0918 71.8681 15.2707 72.4451 13.7311C72.6811 13.0987 71.991 12.9828 71.6632 12.7163C70.057 11.4117 68.9179 9.83728 68.4999 7.748C68.3409 6.95499 68.5114 6.46992 69.1752 6.00968C71.4829 4.41044 74.8807 4.40547 77.1933 6.01134C77.8424 6.46165 78.0604 6.93016 77.8768 7.74303C77.4884 9.45982 76.6443 10.8587 75.433 12.1021C74.9151 12.6351 73.7055 12.8487 73.9644 13.7261C74.366 15.087 74.4021 16.7144 75.8952 17.5703C76.7131 18.0388 77.4998 18.5768 78.2456 19.1563C78.6898 19.5023 79.211 19.999 78.9455 20.6165C78.7275 21.1231 78.0932 20.8549 77.649 20.8631C76.1263 20.8913 74.6037 20.8731 73.081 20.8731Z" fill="white" />
		<path d="M118.166 18.8004C106.689 15.5075 95.1162 13.602 83.4299 12.3157C92.8019 11.9895 115.001 14.1185 118.166 18.8004Z" fill="white" />
		<path d="M60.7408 12.2461C49.1938 13.6152 37.7599 15.5969 26.4801 18.5024C29.4402 16.2078 32.8887 15.2972 36.3963 14.5523C44.4193 12.8487 52.5653 12.4332 60.7408 12.2461Z" fill="white" />
		<path d="M58.5363 7.93351C47.8236 5.50318 37.0322 3.59104 26.0359 2.81459C27.3209 2.1739 28.6895 1.95206 30.0974 1.91067C36.4061 1.72691 42.4967 3.09438 48.5529 4.62575C51.9408 5.48166 55.2795 6.53127 58.6395 7.49313C58.6051 7.64048 58.5707 7.78782 58.5363 7.93351Z" fill="white" />
		<path d="M115.339 28.3212C113.567 28.9239 111.828 28.5646 110.104 28.308C104.944 27.5365 90.6007 21.7041 86.0868 18.3682C95.7145 22.0418 105.326 25.7651 115.339 28.3212Z" fill="white" />
		<path d="M118.926 2.92372C108.03 3.55613 97.66 5.37722 87.3193 7.40194C95.0244 4.38059 113.093 0.0116335 118.926 2.92372Z" fill="white" />
		<path d="M29.2352 28.4671C39.3726 25.6709 49.2052 21.9873 58.9952 18.1697C49.5133 22.9178 40.3085 28.487 29.2352 28.4671Z" fill="white" />
	</g>
	<defs>
		<clipPath id="clip0_344_86">
			<rect width="95" height="29" fill="white" transform="translate(25)" />
		</clipPath>
	</defs>
</svg>
