<svg width="145" height="55" viewBox="0 0 145 55" fill="none" xmlns="http://www.w3.org/2000/svg">
	<g clip-path="url(#clip0_344_86)">
		<path d="M73.081 20.8731C71.4534 20.8731 69.8242 20.8482 68.1983 20.8814C67.1625 20.9029 67.1493 20.4642 67.6066 19.7423C68.1688 18.8533 69.0457 18.3236 69.9439 17.9179C71.7731 17.0918 71.8681 15.2707 72.4451 13.7311C72.6811 13.0987 71.991 12.9828 71.6632 12.7163C70.057 11.4117 68.9179 9.83728 68.4999 7.748C68.3409 6.95499 68.5114 6.46992 69.1752 6.00968C71.4829 4.41044 74.8807 4.40547 77.1933 6.01134C77.8424 6.46165 78.0604 6.93016 77.8768 7.74303C77.4884 9.45982 76.6443 10.8587 75.433 12.1021C74.9151 12.6351 73.7055 12.8487 73.9644 13.7261C74.366 15.087 74.4021 16.7144 75.8952 17.5703C76.7131 18.0388 77.4998 18.5768 78.2456 19.1563C78.6898 19.5023 79.211 19.999 78.9455 20.6165C78.7275 21.1231 78.0932 20.8549 77.649 20.8631C76.1263 20.8913 74.6037 20.8731 73.081 20.8731Z" fill="#2350dd" />
		<path d="M118.166 18.8004C106.689 15.5075 95.1162 13.602 83.4299 12.3157C92.8019 11.9895 115.001 14.1185 118.166 18.8004Z" fill="#2350dd" />
		<path d="M60.7408 12.2461C49.1938 13.6152 37.7599 15.5969 26.4801 18.5024C29.4402 16.2078 32.8887 15.2972 36.3963 14.5523C44.4193 12.8487 52.5653 12.4332 60.7408 12.2461Z" fill="#2350dd" />
		<path d="M58.5363 7.93351C47.8236 5.50318 37.0322 3.59104 26.0359 2.81459C27.3209 2.1739 28.6895 1.95206 30.0974 1.91067C36.4061 1.72691 42.4967 3.09438 48.5529 4.62575C51.9408 5.48166 55.2795 6.53127 58.6395 7.49313C58.6051 7.64048 58.5707 7.78782 58.5363 7.93351Z" fill="#2350dd" />
		<path d="M115.339 28.3212C113.567 28.9239 111.828 28.5646 110.104 28.308C104.944 27.5365 90.6007 21.7041 86.0868 18.3682C95.7145 22.0418 105.326 25.7651 115.339 28.3212Z" fill="#2350dd" />
		<path d="M118.926 2.92372C108.03 3.55613 97.66 5.37722 87.3193 7.40194C95.0244 4.38059 113.093 0.0116335 118.926 2.92372Z" fill="#2350dd" />
		<path d="M29.2352 28.4671C39.3726 25.6709 49.2052 21.9873 58.9952 18.1697C49.5133 22.9178 40.3085 28.487 29.2352 28.4671Z" fill="#2350dd" />
	</g>
	<defs>
		<clipPath id="clip0_344_86">
			<rect width="95" height="29" fill="#2350dd" transform="translate(25)" />
		</clipPath>
	</defs>
</svg>
