<svg id="Layer_1" data-name="Layer 1" xmlns="http://www.w3.org/2000/svg" viewBox="0 0 90 90">
    <path fill="currentColor" d="M43,42H33.41c-.34-5,1.85-6.91,6.34-6,3.88.82,4.8-1.32,5.23-4.51a34.06,34.06,0,0,1,4.27-12.65C53.43,11.72,59.78,8.45,68,9.18c3.68.33,7,1.73,7.28,6.1a5.68,5.68,0,0,1-4.49,6.34c-4,1.05-6.23-1.3-8-4.4-.72-1.27-1.32-2.61-2.27-4.53-4,7.58-4,15.35-5.14,23.27h10c.65,5.16-1.67,6.85-6.15,6-4-.74-5.24,1-5.76,4.94-.89,6.72-2.06,13.47-4.68,19.81C44.82,76.61,37.29,81.4,26.59,80.9a14.67,14.67,0,0,1-3.87-.76c-3-1-4.78-3-4.66-6.27a5.65,5.65,0,0,1,4.77-5.61c3.19-.75,5.28.87,7.15,3.35,1.29,1.71.67,5.63,3.51,5,2.63-.53,2.95-4.08,3.71-6.61C39.93,61,41.32,51.68,43,42Z" transform="translate(0)"/><line x1="7.41" y1="82.59" x2="82.59" y2="7.41" style="stroke:currentColor;stroke-linecap:round;stroke-miterlimit:10;stroke-width:6px"/></svg>