<svg id="Layer_1" data-name="Layer 1" xmlns="http://www.w3.org/2000/svg" viewBox="0 0 90 90">
    <line x1="5" y1="75" x2="65" y2="5" style="stroke:currentColor;stroke-linecap:round;stroke-miterlimit:10;stroke-width:6px"/>
    <path fill="currentColor" d="M17.25,8.5H43.41q26.73,0,26.74,18.06a17.8,17.8,0,0,1-5.83,13.81q-5.83,5.33-15.85,6.91,7.08,13.17,15,20.56t14,7.38a7.74,7.74,0,0,1-2.36,5.21,7.58,7.58,0,0,1-5.42,2q-7.31,0-16.08-11A93.17,93.17,0,0,1,39.87,47.92h-.11c-3.07,0-5.42-.07-7.07-.22V74.9l9.19.64q.59,5.31-3.77,5.31H13.36V80q0-4.35,4.13-4.67l4.83-.21V14.45l-8.6-.64Q13.48,8.5,17.25,8.5ZM32.69,14V42.39c2.67.14,4.55.22,5.65.22q10.36,0,15.73-3.88T59.43,27.2q0-7.65-5.18-10.68T40,13.81L32.8,14Z" transform="translate(-6.06 -6.06)"/>
</svg>