<svg width="125" height="113" viewBox="0 0 125 113" fill="none" xmlns="http://www.w3.org/2000/svg">
<path d="M102.565 36.6256C101.237 36.1618 99.8986 35.7322 98.5499 35.3372C98.7765 34.3945 98.985 33.4633 99.1702 32.5485C102.21 17.5254 100.223 5.42252 93.4356 1.43767C86.9281 -2.38246 76.2858 1.6009 65.5377 11.1249C64.4785 12.0653 63.4427 13.0327 62.4314 14.0263C61.7545 13.3656 61.0655 12.7177 60.365 12.083C49.1004 1.89956 37.8095 -2.39238 31.0297 1.60387C24.5281 5.43592 22.603 16.8135 25.3394 31.0512C25.6117 32.4613 25.9191 33.8641 26.2613 35.2583C24.6631 35.7207 23.1209 36.2128 21.645 36.7367C8.4382 41.4251 0.00415039 48.7721 0.00415039 56.393C0.00415039 64.264 9.05849 72.1588 22.814 76.9459C23.9291 77.3324 25.0536 77.6905 26.1863 78.02C25.8184 79.5216 25.4918 81.0333 25.2069 82.5535C22.5981 96.5441 24.6353 107.653 31.1194 111.461C37.8163 115.393 49.0565 111.351 60.001 101.61C60.8884 100.818 61.7564 100.004 62.6039 99.1676C63.6991 100.244 64.8235 101.288 65.9758 102.3C76.5777 111.589 87.048 115.339 93.5257 111.521C100.216 107.577 102.391 95.6437 99.5678 81.1247C99.3454 79.9872 99.096 78.8554 98.8198 77.7302C99.6092 77.4921 100.384 77.247 101.139 76.992C115.439 72.1682 124.744 64.3692 124.744 56.393C124.744 48.7443 116.037 41.3477 102.565 36.6256V36.6256ZM99.4635 71.8423C98.7813 72.072 98.0816 72.2937 97.3683 72.5095C95.7895 67.4208 93.6592 62.0101 91.0519 56.4193C93.5398 50.962 95.5883 45.6203 97.1227 40.5648C98.3988 40.9408 99.637 41.3372 100.831 41.7555C112.374 45.8018 119.415 51.7836 119.415 56.393C119.415 61.3027 111.811 67.6763 99.4635 71.8423V71.8423ZM94.3404 82.1785C95.5888 88.5983 95.7666 94.4029 94.9397 98.9409C94.1972 103.019 92.7032 105.737 90.8555 106.826C86.9247 109.143 78.518 106.131 69.4515 98.1873C68.3796 97.2463 67.3337 96.2752 66.3149 95.2751C69.8301 91.3612 73.3427 86.8112 76.7711 81.7578C82.8015 81.213 88.4986 80.322 93.6651 79.106C93.9139 80.1246 94.1391 81.149 94.3404 82.1785V82.1785ZM42.5306 106.425C38.69 107.806 35.6309 107.846 33.7818 106.76C29.8471 104.45 28.2114 95.5301 30.4426 83.5656C30.7078 82.1518 31.0115 80.7457 31.3533 79.3491C36.4627 80.5001 42.1184 81.3276 48.1629 81.8267C51.6147 86.7716 55.2287 91.3165 58.871 95.2964C58.097 96.059 57.3046 96.8021 56.4946 97.525C51.6546 101.832 46.8049 104.888 42.5306 106.425V106.425ZM24.5379 71.812C18.4554 69.695 13.4322 66.9441 9.98916 63.942C6.89504 61.2446 5.33336 58.5661 5.33336 56.393C5.33336 51.7682 12.1049 45.8693 23.3992 41.8602C24.7698 41.374 26.2043 40.915 27.6929 40.4844C29.2541 45.654 31.3016 51.0592 33.7725 56.525C31.2694 62.0716 29.1927 67.5632 27.6164 72.7938C26.5825 72.4923 25.556 72.1649 24.5379 71.812V71.812ZM30.5692 30.0088C28.225 17.8107 29.7818 8.60911 33.6999 6.29966C37.8728 3.83989 47.1007 7.34697 56.8269 16.1402C57.4612 16.7149 58.0851 17.3013 58.6985 17.899C55.0742 21.8615 51.4933 26.3727 48.0723 31.2883C42.2056 31.842 36.5899 32.731 31.4268 33.9222C31.1087 32.6255 30.8228 31.3207 30.5692 30.0093V30.0088ZM84.3763 43.537C83.1568 41.3923 81.8921 39.2745 80.583 37.1852C84.563 37.6977 88.3763 38.3779 91.9572 39.2094C90.8823 42.7179 89.5423 46.3858 87.9651 50.1464C86.8121 47.9192 85.6157 45.7156 84.3763 43.537V43.537ZM62.4339 21.7767C64.8916 24.488 67.3533 27.5148 69.7745 30.7991C64.8629 30.5629 59.9431 30.562 55.0314 30.7962C57.455 27.5421 59.9376 24.5192 62.4339 21.7767ZM40.3506 43.5743C39.1267 45.7353 37.9526 47.9251 36.8291 50.1419C35.2777 46.3947 33.9499 42.71 32.8657 39.1518C36.4247 38.3412 40.22 37.6783 44.1746 37.1753C42.8509 39.2773 41.5759 41.4108 40.3506 43.5738V43.5743ZM44.2882 75.9968C40.2025 75.5324 36.3501 74.9038 32.7921 74.115C33.8934 70.4933 35.2504 66.7302 36.8355 62.9027C37.9634 65.1211 39.1424 67.3123 40.3715 69.4743C41.6355 71.6969 42.9443 73.8739 44.2882 75.9968ZM62.581 91.3914C60.0551 88.6171 57.5359 85.5476 55.0757 82.2464C57.4643 82.3417 59.8991 82.3903 62.3739 82.3903C64.9165 82.3903 67.4298 82.3323 69.9036 82.2201C67.4746 85.5809 65.0222 88.6548 62.581 91.3914ZM88.0152 62.7072C89.6827 66.5769 91.0879 70.3202 92.2038 73.8798C88.5873 74.7203 84.6824 75.397 80.5679 75.8995C81.8863 73.7715 83.163 71.6169 84.3973 69.4371C85.6522 67.2214 86.8585 64.9775 88.0152 62.7072V62.7072ZM79.7815 66.7263C77.8919 70.0683 75.8962 73.3469 73.7974 76.5569C69.9955 76.8311 66.1853 76.9673 62.3739 76.9652C58.4919 76.9652 54.7161 76.8422 51.0801 76.6021C48.9265 73.3995 46.8927 70.1151 44.983 66.756H44.9835C43.0828 63.4147 41.3074 60.0011 39.6611 56.5225C41.3032 53.0432 43.0732 49.6279 44.9674 46.2841L44.9669 46.2846C46.8604 42.9398 48.878 39.6695 51.0153 36.4807C54.7249 36.1949 58.5289 36.0461 62.3735 36.0461H62.3739C66.236 36.0461 70.0449 36.1964 73.7535 36.4842C75.8692 39.6682 77.874 42.9273 79.7639 46.2553C81.6644 49.5918 83.4579 52.9904 85.1414 56.4456C83.4752 59.9362 81.6874 63.3653 79.7815 66.7263V66.7263ZM90.7741 6.13793C94.951 8.59075 96.5755 18.4819 93.9511 31.453C93.7835 32.2805 93.5954 33.1235 93.3907 33.9783C88.215 32.7618 82.5954 31.8574 76.7117 31.2953C73.2843 26.3256 69.7326 21.8074 66.1673 17.896C67.1017 16.9789 68.0583 16.0856 69.0363 15.217C78.2456 7.05724 86.8526 3.83543 90.7741 6.13793V6.13793ZM62.3739 45.0517C68.5257 45.0517 73.5128 50.1295 73.5128 56.393C73.5128 62.6566 68.5257 67.7344 62.3739 67.7344C56.2222 67.7344 51.2351 62.6566 51.2351 56.393C51.2351 50.1295 56.2222 45.0517 62.3739 45.0517V45.0517Z" fill="#00D8FF"/>
</svg>
