<svg width="20" height="20" viewBox="0 0 18 20" fill="none" xmlns="http://www.w3.org/2000/svg">
<path d="M18 10.5019C18 9.28099 16.5067 8.12398 14.2173 7.40648C14.7456 5.01732 14.5108 3.11651 13.4762 2.50795C13.2377 2.3652 12.9588 2.29758 12.6543 2.29758V3.13529C12.8231 3.13529 12.9588 3.1691 13.0726 3.23296C13.5715 3.52597 13.788 4.64166 13.6192 6.07666C13.5789 6.42978 13.5128 6.80168 13.4321 7.18109C12.713 7.00077 11.9278 6.86178 11.1023 6.77162C10.607 6.07666 10.0934 5.44556 9.57603 4.89335C10.7721 3.75512 11.8948 3.13153 12.658 3.13153V2.29382C11.649 2.29382 10.3282 3.03011 8.99266 4.30733C7.65715 3.03762 6.33632 2.30885 5.32735 2.30885V3.14656C6.08683 3.14656 7.21321 3.76639 8.4093 4.89711C7.89564 5.44932 7.38198 6.07666 6.89401 6.77162C6.06482 6.86178 5.27966 7.00077 4.56054 7.18484C4.47615 6.80919 4.41378 6.4448 4.36975 6.09544C4.19731 4.66045 4.41011 3.54475 4.90542 3.24799C5.01549 3.18037 5.15858 3.15032 5.32735 3.15032V2.31261C5.01916 2.31261 4.74032 2.38022 4.49817 2.52297C3.46718 3.13153 3.23604 5.02859 3.76804 7.41023C1.48594 8.13149 0 9.28475 0 10.5019C0 11.7227 1.49327 12.8798 3.78271 13.5973C3.25438 15.9864 3.4892 17.8872 4.52385 18.4958C4.76233 18.6385 5.04117 18.7062 5.34937 18.7062C6.35834 18.7062 7.67917 17.9699 9.01468 16.6927C10.3502 17.9624 11.671 18.6911 12.68 18.6911C12.9882 18.6911 13.267 18.6235 13.5092 18.4808C14.5402 17.8722 14.7713 15.9752 14.2393 13.5935C16.5141 12.876 18 11.719 18 10.5019ZM13.223 7.99626C13.0872 8.48085 12.9185 8.98047 12.7277 9.48009C12.5773 9.17957 12.4195 8.87904 12.247 8.57852C12.0783 8.278 11.8985 7.98499 11.7187 7.69949C12.2397 7.77838 12.7424 7.87605 13.223 7.99626ZM11.5426 11.997C11.2564 12.5041 10.9629 12.9849 10.6584 13.432C10.1117 13.4808 9.55768 13.5071 9 13.5071C8.44598 13.5071 7.89197 13.4808 7.34896 13.4357C7.04444 12.9887 6.74725 12.5116 6.46107 12.0082C6.18223 11.5161 5.92907 11.0165 5.69792 10.5131C5.9254 10.0098 6.18223 9.50639 6.4574 9.01428C6.74358 8.50715 7.0371 8.02631 7.34162 7.57928C7.8883 7.53044 8.44232 7.50415 9 7.50415C9.55402 7.50415 10.108 7.53044 10.651 7.57552C10.9556 8.02255 11.2528 8.49963 11.5389 9.00301C11.8178 9.49512 12.0709 9.99474 12.3021 10.4981C12.0709 11.0015 11.8178 11.5049 11.5426 11.997ZM12.7277 11.5086C12.9258 12.012 13.0946 12.5154 13.234 13.0037C12.7534 13.1239 12.247 13.2254 11.7224 13.3043C11.9022 13.015 12.0819 12.7182 12.2507 12.414C12.4195 12.1134 12.5773 11.8091 12.7277 11.5086ZM9.00734 15.5169C8.66612 15.1562 8.32491 14.7543 7.98736 14.3148C8.31757 14.3298 8.65512 14.3411 8.99633 14.3411C9.34122 14.3411 9.68243 14.3335 10.0163 14.3148C9.6861 14.7543 9.34488 15.1562 9.00734 15.5169ZM6.27762 13.3043C5.75662 13.2254 5.25397 13.1277 4.77334 13.0075C4.90909 12.5229 5.07786 12.0233 5.26865 11.5237C5.41908 11.8242 5.57684 12.1247 5.74929 12.4252C5.92173 12.7257 6.09784 13.0188 6.27762 13.3043ZM8.98899 5.48689C9.33021 5.84751 9.67142 6.24946 10.009 6.68898C9.67876 6.67395 9.34122 6.66268 9 6.66268C8.65512 6.66268 8.3139 6.6702 7.98003 6.68898C8.31023 6.24946 8.65145 5.84751 8.98899 5.48689ZM6.27395 7.69949C6.09417 7.98874 5.91439 8.28551 5.74562 8.58979C5.57684 8.89031 5.41908 9.19084 5.26865 9.49136C5.07053 8.98798 4.90175 8.48461 4.76233 7.99626C5.24297 7.8798 5.74929 7.77838 6.27395 7.69949ZM2.95353 12.4027C1.65471 11.8354 0.814513 11.0916 0.814513 10.5019C0.814513 9.91209 1.65471 9.16454 2.95353 8.60106C3.26906 8.46207 3.61394 8.3381 3.96983 8.22165C4.17896 8.95793 4.45414 9.72427 4.79535 10.5094C4.45781 11.2907 4.1863 12.0533 3.98084 12.7858C3.61761 12.6694 3.27273 12.5417 2.95353 12.4027ZM4.92744 17.7708C4.42846 17.4778 4.21199 16.3621 4.38076 14.9271C4.42112 14.574 4.48716 14.2021 4.56788 13.8227C5.287 14.003 6.07216 14.142 6.89768 14.2321C7.39299 14.9271 7.90664 15.5582 8.42397 16.1104C7.22788 17.2486 6.10518 17.8722 5.34203 17.8722C5.17693 17.8685 5.03751 17.8346 4.92744 17.7708ZM13.6302 14.9083C13.8027 16.3433 13.5899 17.459 13.0946 17.7558C12.9845 17.8234 12.8414 17.8534 12.6726 17.8534C11.9132 17.8534 10.7868 17.2336 9.59071 16.1029C10.1044 15.5507 10.618 14.9233 11.106 14.2284C11.9352 14.1382 12.7203 13.9992 13.4395 13.8151C13.5238 14.1946 13.5899 14.5589 13.6302 14.9083ZM15.0428 12.4027C14.7273 12.5417 14.3824 12.6656 14.0265 12.7821C13.8174 12.0458 13.5422 11.2795 13.201 10.4944C13.5385 9.713 13.81 8.95042 14.0155 8.21789C14.3787 8.33434 14.7236 8.46207 15.0465 8.60106C16.3453 9.1683 17.1855 9.91209 17.1855 10.5019C17.1818 11.0916 16.3416 11.8392 15.0428 12.4027Z" fill="#61DAFB"/>
<path d="M8.9963 12.2186C9.92233 12.2186 10.673 11.45 10.673 10.5019C10.673 9.55374 9.92233 8.78513 8.9963 8.78513C8.07027 8.78513 7.31958 9.55374 7.31958 10.5019C7.31958 11.45 8.07027 12.2186 8.9963 12.2186Z" fill="#61DAFB"/>
</svg>
