<svg width="34" height="25" viewBox="0 0 34 25" fill="none" xmlns="http://www.w3.org/2000/svg">
<g clip-path="url(#clip0_132_2)">
<path d="M29.2587 14.362C28.07 14.3685 27.0407 14.6484 26.1775 15.0652C25.8587 14.4467 25.54 13.9062 25.4869 13.5027C25.4271 13.0339 25.3541 12.7474 25.4271 12.1876C25.5001 11.6276 25.8321 10.8333 25.8321 10.7682C25.8254 10.7096 25.759 10.4232 25.0751 10.4167C24.3912 10.4101 23.8001 10.5469 23.7337 10.7226C23.6673 10.8984 23.5345 11.3021 23.4482 11.7187C23.3286 12.3307 22.0802 14.4987 21.3696 15.638C21.1372 15.1953 20.938 14.8047 20.8981 14.4921C20.8384 14.0234 20.7653 13.7369 20.8384 13.1771C20.9114 12.6171 21.2435 11.8229 21.2435 11.7578C21.2368 11.6992 21.1704 11.4128 20.4865 11.4062C19.8025 11.3997 19.2115 11.5364 19.1451 11.7122C19.0787 11.888 19.0056 12.3047 18.8596 12.7083C18.72 13.112 17.0599 16.7318 16.6282 17.6758C16.4091 18.1575 16.2166 18.5417 16.0771 18.8021C15.9376 19.0625 16.0704 18.8216 16.0571 18.8476C15.9376 19.069 15.8712 19.1927 15.8712 19.1927V19.1993C15.7782 19.362 15.6786 19.5182 15.6321 19.5182C15.5989 19.5182 15.5325 19.082 15.6454 18.4831C15.8911 17.2266 16.4887 15.267 16.4821 15.1954C16.4821 15.1628 16.595 14.8177 16.0969 14.642C15.6122 14.4662 15.4396 14.7592 15.3997 14.7592C15.3598 14.7592 15.3266 14.8633 15.3266 14.8633C15.3266 14.8633 15.8645 12.6564 14.2973 12.6564C13.3145 12.6564 11.9598 13.7045 11.2891 14.6616C10.8641 14.8894 9.96098 15.3711 9.00473 15.8855C8.6395 16.0808 8.26098 16.2892 7.90239 16.478L7.82941 16.3997C5.93019 14.4141 2.4173 13.0078 2.56339 10.3385C2.61652 9.36848 2.96183 6.80989 9.31033 3.71093C14.5099 1.17187 18.6736 1.86848 19.3974 3.41796C20.4267 5.6315 17.1728 9.74608 11.7674 10.3385C9.70877 10.5664 8.62628 9.78515 8.35408 9.49218C8.06854 9.18619 8.02869 9.17317 7.92244 9.23176C7.74979 9.32291 7.85604 9.59634 7.92244 9.7591C8.08182 10.1693 8.74588 10.8984 9.87479 11.263C10.8642 11.582 13.2814 11.7578 16.2033 10.651C19.4771 9.40754 22.0338 5.95702 21.2834 3.07291C20.5197 0.13671 15.5525 -0.826832 10.8576 0.807282C8.06183 1.78384 5.03371 3.30728 2.85558 5.30598C0.265738 7.67577 -0.145981 9.74608 0.026675 10.6055C0.631038 13.6719 4.94074 15.6706 6.6673 17.1484C6.58097 17.1939 6.50128 17.2395 6.42824 17.2786C5.56496 17.6952 2.27785 19.3815 1.45441 21.1653C0.524722 23.1835 1.6005 24.6354 2.31769 24.8307C4.53566 25.4362 6.80675 24.3489 8.03527 22.5586C9.25708 20.7682 9.11105 18.444 8.5466 17.3828L8.52661 17.3437L9.20395 16.9531C9.6423 16.6992 10.0739 16.4648 10.4524 16.2629C10.24 16.8294 10.0872 17.4999 10.0075 18.4765C9.91456 19.6224 10.3927 21.1067 11.0235 21.6926C11.3025 21.9465 11.6345 21.9531 11.8403 21.9531C12.5708 21.9531 12.9028 21.3605 13.2681 20.651C13.7196 19.7851 14.1181 18.7825 14.1181 18.7825C14.1181 18.7825 13.62 21.4973 14.9814 21.4973C15.4794 21.4973 15.9775 20.8658 16.2032 20.5403V20.5468C16.2032 20.5468 16.2165 20.5273 16.2431 20.4817C16.2709 20.4413 16.2975 20.4001 16.3228 20.3581V20.345C16.522 20.0065 16.9669 19.2318 17.631 17.9492C18.4875 16.2956 19.311 14.2253 19.311 14.2253C19.311 14.2253 19.3907 14.7331 19.6364 15.5664C19.7825 16.0613 20.1012 16.6016 20.3469 17.1289C20.1477 17.4023 20.0282 17.5586 20.0282 17.5586L20.0348 17.5652C19.8755 17.7735 19.6961 17.9949 19.5103 18.2162C18.8329 19.0105 18.0228 19.9155 17.9165 20.1759C17.7903 20.4818 17.8169 20.7097 18.0626 20.892C18.2419 21.0223 18.5607 21.0482 18.8993 21.0223C19.5103 20.9831 19.9353 20.8335 20.1478 20.7422C20.4798 20.6251 20.8583 20.4493 21.2235 20.1889C21.8876 19.7072 22.2927 19.0236 22.2528 18.1121C22.2329 17.6108 22.0669 17.116 21.861 16.6473C21.9208 16.5626 21.9806 16.4779 22.0403 16.3868C23.0896 14.8829 23.8997 13.2293 23.8997 13.2293C23.8997 13.2293 23.9794 13.7371 24.2251 14.5704C24.3512 14.9936 24.6036 15.4559 24.8294 15.9116C23.8466 16.6994 23.229 17.6109 23.0165 18.2098C22.6247 19.3166 22.9302 19.8179 23.5079 19.9351C23.7668 19.9872 24.1388 19.87 24.4176 19.7528C24.7629 19.6421 25.1813 19.4532 25.5665 19.1734C26.2306 18.6916 26.8681 18.021 26.8349 17.1161C26.815 16.6994 26.7021 16.2892 26.5493 15.8986C27.386 15.5601 28.4684 15.3648 29.8431 15.5275C32.7982 15.8661 33.3825 17.676 33.2697 18.4312C33.1568 19.1864 32.5392 19.6031 32.3333 19.7333C32.1275 19.857 32.061 19.9026 32.081 19.9937C32.1075 20.1305 32.2005 20.1239 32.3798 20.0979C32.6255 20.0588 33.9337 19.4794 33.9868 18.0863C34.0665 16.2956 32.3333 14.3425 29.2587 14.362ZM6.46808 21.8945C5.49191 22.9427 4.1173 23.3398 3.53292 23.0013C2.90207 22.6432 3.1477 21.1003 4.34972 19.987C5.08019 19.3099 6.0298 18.6849 6.65402 18.3008C6.79347 18.2161 7.00597 18.0925 7.25831 17.9427C7.29816 17.9167 7.32472 17.9036 7.32472 17.9036C7.37121 17.8776 7.42433 17.845 7.47746 17.8125C7.92238 19.401 7.49738 20.7943 6.46808 21.8945ZM13.6068 17.1354C13.2681 17.9492 12.5509 20.0391 12.1193 19.9219C11.7473 19.8242 11.5216 18.2422 12.0461 16.6797C12.3118 15.8919 12.8762 14.9544 13.2082 14.5898C13.7462 14.0038 14.3305 13.8085 14.4767 14.0494C14.6493 14.362 13.8193 16.6276 13.6068 17.1354ZM19.497 19.8958C19.3509 19.9675 19.2181 20.0195 19.1583 19.9805C19.1118 19.9545 19.218 19.8568 19.218 19.8568C19.218 19.8568 19.9551 19.0821 20.2473 18.724C20.4133 18.5157 20.6125 18.2749 20.825 18.0014V18.0795C20.8251 19.0169 19.9087 19.6419 19.497 19.8958ZM24.0391 18.8802C23.9329 18.8021 23.9462 18.5612 24.3047 17.806C24.4443 17.5065 24.7629 17.0052 25.3141 16.5299C25.3805 16.7253 25.4204 16.914 25.4137 17.0898C25.4071 18.2617 24.5571 18.6979 24.0391 18.8802Z" fill="#CF649A"/>
</g>
<defs>
<clipPath id="clip0_132_2">
<rect width="34" height="25" fill="white"/>
</clipPath>
</defs>
</svg>
