<svg id="Layer_1" data-name="Layer 1" xmlns="http://www.w3.org/2000/svg" viewBox="0 0 90 90">
    <path fill="currentColor" d="M70,59.21q0,8.94-7.47,15.71t-20,6.63a34.91,34.91,0,0,1-15.78-3.7Q19.87,74.3,20,68a7.3,7.3,0,0,1,2.44-5.86,8.28,8.28,0,0,1,5.94-2A16.18,16.18,0,0,0,34,69.75a16.66,16.66,0,0,0,10.75,3.63,18.41,18.41,0,0,0,10.62-2.72A9.08,9.08,0,0,0,59.66,63c.09-3.26-1-5.73-3.21-7.4a42.7,42.7,0,0,0-10.05-5.1q-6.7-2.58-9.78-4a49.32,49.32,0,0,1-6.84-3.91,16,16,0,0,1-7.47-14.24,17.16,17.16,0,0,1,7.61-14.59A27.25,27.25,0,0,1,46.33,8.45q8.87.08,14.66,3t5.65,8.8c0,2.79-.9,4.84-2.72,6.14a8.5,8.5,0,0,1-6.21,1.54,10.14,10.14,0,0,0-3.35-8.1,13.5,13.5,0,0,0-9.15-3.35,15,15,0,0,0-9.28,2.44,8,8,0,0,0-3.7,6.63c0,2.71,1.27,4.94,4,6.71a65,65,0,0,0,11.44,5.58q7.41,2.94,10.2,4.26A37.46,37.46,0,0,1,64,45.94Q70,50.28,70,59.21Z" transform="translate(-6.06 -6.06)"/>
</svg>